<svg width="1440" height="900" viewBox="0 0 1440 900" fill="none" xmlns="http://www.w3.org/2000/svg">
  <defs>
    <linearGradient id="rail" x1="0" y1="0" x2="1" y2="0">
      <stop stop-color="#00E8FF" stop-opacity="0"/>
      <stop offset="0.25" stop-color="#00E8FF"/>
      <stop offset="0.7" stop-color="#A855FF"/>
      <stop offset="1" stop-color="#FF3DF2" stop-opacity="0"/>
    </linearGradient>
    <linearGradient id="progress" x1="0" y1="0" x2="1" y2="0">
      <stop stop-color="#00E8FF"/>
      <stop offset="0.58" stop-color="#A855FF"/>
      <stop offset="1" stop-color="#FF3DF2"/>
    </linearGradient>
    <filter id="glow" x="-45%" y="-45%" width="190%" height="190%">
      <feGaussianBlur stdDeviation="5" result="blur"/>
      <feMerge>
        <feMergeNode in="blur"/>
        <feMergeNode in="SourceGraphic"/>
      </feMerge>
    </filter>
  </defs>
  <rect width="1440" height="900" fill="#030511"/>
  <path d="M0 0H1440" stroke="url(#rail)" stroke-width="4"/>
  <text x="80" y="82" font-family="Share Tech Mono, Consolas, monospace" font-size="34" fill="#EAF8FF" letter-spacing="2">FLUXPLAYER CYBERPUNK COMPONENTS</text>
  <text x="80" y="112" font-family="Segoe UI, Arial, sans-serif" font-size="15" fill="#6F89A8">Cyan is action. Violet is mode. Magenta is energy. Rose is warning.</text>

  <g transform="translate(80 160)">
    <text x="0" y="0" font-family="Share Tech Mono, Consolas, monospace" font-size="16" fill="#00E8FF">BUTTON STATES</text>
    <path d="M0 18H450" stroke="url(#rail)" stroke-width="2"/>
    <rect x="0" y="48" width="120" height="38" rx="4" fill="#050A1A" stroke="#00E8FF" stroke-opacity="0.55"/>
    <text x="60" y="72" text-anchor="middle" font-family="Share Tech Mono, Consolas, monospace" font-size="13" fill="#00E8FF">NORMAL</text>
    <g filter="url(#glow)">
      <rect x="146" y="48" width="120" height="38" rx="4" fill="#061126" stroke="#00E8FF" stroke-width="2"/>
    </g>
    <text x="206" y="72" text-anchor="middle" font-family="Share Tech Mono, Consolas, monospace" font-size="13" fill="#EAF8FF">HOVER</text>
    <rect x="292" y="48" width="120" height="38" rx="4" fill="#170A2D" stroke="#A855FF" stroke-width="2"/>
    <text x="352" y="72" text-anchor="middle" font-family="Share Tech Mono, Consolas, monospace" font-size="13" fill="#A855FF">ACTIVE</text>
    <rect x="438" y="48" width="120" height="38" rx="4" fill="#050A1A" stroke="#3E526C" stroke-opacity="0.65"/>
    <text x="498" y="72" text-anchor="middle" font-family="Share Tech Mono, Consolas, monospace" font-size="13" fill="#3E526C">DISABLED</text>
  </g>

  <g transform="translate(80 310)">
    <text x="0" y="0" font-family="Share Tech Mono, Consolas, monospace" font-size="16" fill="#00E8FF">PROGRESS RAIL</text>
    <path d="M0 18H620" stroke="url(#rail)" stroke-width="2"/>
    <rect x="0" y="54" width="620" height="20" rx="4" fill="#060B1D" stroke="#136C8F" stroke-opacity="0.65"/>
    <rect x="5" y="59" width="382" height="10" rx="3" fill="url(#progress)"/>
    <g filter="url(#glow)">
      <circle cx="387" cy="64" r="6" fill="#EAF8FF"/>
      <circle cx="387" cy="64" r="14" stroke="#00E8FF" stroke-opacity="0.7" stroke-width="2"/>
      <circle cx="387" cy="64" r="21" stroke="#A855FF" stroke-opacity="0.26" stroke-width="2"/>
    </g>
    <line x1="480" y1="42" x2="480" y2="86" stroke="#EAF8FF" stroke-opacity="0.65" stroke-width="2"/>
    <rect x="442" y="8" width="76" height="28" rx="3" fill="#050A1A" stroke="#00E8FF" stroke-opacity="0.6"/>
    <text x="480" y="27" text-anchor="middle" font-family="Share Tech Mono, Consolas, monospace" font-size="12" fill="#EAF8FF">00:42:18</text>
  </g>

  <g transform="translate(80 470)">
    <text x="0" y="0" font-family="Share Tech Mono, Consolas, monospace" font-size="16" fill="#00E8FF">TRANSPORT</text>
    <path d="M0 18H660" stroke="url(#rail)" stroke-width="2"/>
    <g filter="url(#glow)">
      <rect x="0" y="48" width="86" height="34" rx="4" fill="#061126" stroke="#00E8FF" stroke-width="2"/>
      <path d="M35 58V72M55 58V72" stroke="#00E8FF" stroke-width="5"/>
    </g>
    <rect x="100" y="48" width="50" height="34" rx="4" fill="#070A1B" stroke="#A855FF" stroke-opacity="0.78"/>
    <rect x="120" y="60" width="11" height="11" fill="#A855FF"/>
    <rect x="164" y="48" width="78" height="34" rx="4" fill="#160817" stroke="#FF3B7A" stroke-opacity="0.8"/>
    <circle cx="184" cy="65" r="5" fill="#FF3B7A"/>
    <text x="214" y="69" text-anchor="middle" font-family="Share Tech Mono, Consolas, monospace" font-size="12" fill="#FF6A9D">REC V</text>
    <rect x="258" y="48" width="78" height="34" rx="4" fill="#050A1A" stroke="#00E8FF" stroke-opacity="0.65"/>
    <circle cx="278" cy="65" r="5" fill="#136C8F"/>
    <text x="307" y="69" text-anchor="middle" font-family="Share Tech Mono, Consolas, monospace" font-size="12" fill="#00E8FF">REC A</text>
    <rect x="352" y="48" width="66" height="34" rx="4" fill="#050A1A" stroke="#00E8FF" stroke-opacity="0.65"/>
    <text x="385" y="69" text-anchor="middle" font-family="Share Tech Mono, Consolas, monospace" font-size="12" fill="#00E8FF">1.0x</text>
    <rect x="432" y="48" width="72" height="34" rx="4" fill="#050A1A" stroke="#A855FF" stroke-opacity="0.7"/>
    <text x="468" y="69" text-anchor="middle" font-family="Share Tech Mono, Consolas, monospace" font-size="12" fill="#A855FF">1080P</text>
    <rect x="518" y="48" width="72" height="34" rx="4" fill="#170A2D" stroke="#A855FF" stroke-width="2"/>
    <text x="554" y="69" text-anchor="middle" font-family="Share Tech Mono, Consolas, monospace" font-size="12" fill="#EAF8FF">SET</text>
  </g>

  <g transform="translate(770 160)">
    <path d="M24 0H400L424 24V288L400 312H24L0 288V24L24 0Z" fill="#050A1A" fill-opacity="0.9" stroke="#00E8FF" stroke-opacity="0.75"/>
    <path d="M28 24H176" stroke="#00E8FF" stroke-width="2"/>
    <text x="28" y="54" font-family="Share Tech Mono, Consolas, monospace" font-size="15" fill="#00E8FF">HUD PANEL</text>
    <path d="M28 72H396" stroke="url(#rail)" stroke-width="2"/>
    <text x="28" y="112" font-family="Segoe UI, Arial, sans-serif" font-size="14" fill="#6F89A8">Video Codec</text>
    <text x="190" y="112" font-family="Share Tech Mono, Consolas, monospace" font-size="14" fill="#EAF8FF">H.265 Main10</text>
    <text x="28" y="148" font-family="Segoe UI, Arial, sans-serif" font-size="14" fill="#6F89A8">Resolution</text>
    <text x="190" y="148" font-family="Share Tech Mono, Consolas, monospace" font-size="14" fill="#00E8FF">3840 x 2160</text>
    <text x="28" y="184" font-family="Segoe UI, Arial, sans-serif" font-size="14" fill="#6F89A8">Audio</text>
    <text x="190" y="184" font-family="Share Tech Mono, Consolas, monospace" font-size="14" fill="#EAF8FF">AAC 48kHz</text>
    <text x="28" y="220" font-family="Segoe UI, Arial, sans-serif" font-size="14" fill="#6F89A8">Dropped</text>
    <text x="190" y="220" font-family="Share Tech Mono, Consolas, monospace" font-size="14" fill="#FF3B7A">0 frames</text>
    <g opacity="0.45">
      <path d="M324 32H390M340 48H390M310 256H390M334 272H390" stroke="#A855FF" stroke-width="3"/>
    </g>
  </g>

  <g transform="translate(770 540)">
    <text x="0" y="0" font-family="Share Tech Mono, Consolas, monospace" font-size="16" fill="#A855FF">SPEED / QUALITY POPUP</text>
    <path d="M0 18H310" stroke="url(#rail)" stroke-width="2"/>
    <rect x="0" y="48" width="260" height="226" rx="4" fill="#050A1A" stroke="#A855FF" stroke-opacity="0.75"/>
    <rect x="0" y="92" width="260" height="34" fill="#00E8FF" fill-opacity="0.08"/>
    <rect x="0" y="92" width="3" height="34" fill="#00E8FF"/>
    <text x="22" y="78" font-family="Share Tech Mono, Consolas, monospace" font-size="13" fill="#6F89A8">0.5x</text>
    <text x="22" y="114" font-family="Share Tech Mono, Consolas, monospace" font-size="13" fill="#EAF8FF">1.0x</text>
    <circle cx="232" cy="106" r="5" fill="#00E8FF"/>
    <text x="22" y="150" font-family="Share Tech Mono, Consolas, monospace" font-size="13" fill="#6F89A8">1.25x</text>
    <text x="22" y="186" font-family="Share Tech Mono, Consolas, monospace" font-size="13" fill="#6F89A8">1.5x</text>
    <text x="22" y="222" font-family="Share Tech Mono, Consolas, monospace" font-size="13" fill="#6F89A8">2.0x</text>
    <path d="M20 246H240" stroke="#136C8F" stroke-opacity="0.5"/>
  </g>

  <g transform="translate(80 650)">
    <text x="0" y="0" font-family="Share Tech Mono, Consolas, monospace" font-size="16" fill="#A855FF">UTILITY ACCESS</text>
    <path d="M0 18H700" stroke="url(#rail)" stroke-width="2"/>
    <text x="0" y="49" font-family="Share Tech Mono, Consolas, monospace" font-size="11" fill="#A855FF">DOWNLOAD ACTIVE</text>
    <rect x="130" y="30" width="108" height="30" rx="4" fill="#050A1A" stroke="#00E8FF" stroke-opacity="0.65"/>
    <rect x="131" y="31" width="45" height="28" rx="3" fill="#00E8FF" fill-opacity="0.18"/>
    <text x="184" y="50" text-anchor="middle" font-family="Share Tech Mono, Consolas, monospace" font-size="11" fill="#EAF8FF">42%</text>
    <rect x="248" y="30" width="28" height="30" rx="3" fill="#050A1A" stroke="#00E8FF" stroke-opacity="0.65"/>
    <path d="M257 40V50M267 40V50" stroke="#00E8FF" stroke-width="2"/>
    <rect x="284" y="30" width="28" height="30" rx="3" fill="#050A1A" stroke="#FF3B7A" stroke-opacity="0.65"/>
    <path d="M293 40L303 50M303 40L293 50" stroke="#FF6A9D" stroke-width="1.5"/>
    <text x="324" y="42" font-family="Share Tech Mono, Consolas, monospace" font-size="11" fill="#00E8FF">8.6 MiB/s  124 MiB</text>
    <text x="324" y="57" font-family="Share Tech Mono, Consolas, monospace" font-size="11" fill="#6F89A8">ETA 00:18</text>
    <rect x="0" y="80" width="108" height="32" rx="4" fill="#061126" stroke="#00E8FF" stroke-opacity="0.7"/>
    <text x="54" y="101" text-anchor="middle" font-family="Share Tech Mono, Consolas, monospace" font-size="12" fill="#00E8FF">VOLUME</text>
    <rect x="124" y="80" width="116" height="32" rx="4" fill="#061126" stroke="#00E8FF" stroke-opacity="0.7"/>
    <text x="182" y="101" text-anchor="middle" font-family="Share Tech Mono, Consolas, monospace" font-size="12" fill="#00E8FF">MEDIA INFO</text>
    <rect x="256" y="80" width="92" height="32" rx="4" fill="#061126" stroke="#00E8FF" stroke-opacity="0.7"/>
    <text x="302" y="101" text-anchor="middle" font-family="Share Tech Mono, Consolas, monospace" font-size="12" fill="#00E8FF">STATS</text>
    <text x="0" y="139" font-family="Segoe UI, Arial, sans-serif" font-size="13" fill="#6F89A8">Settings retains loop, subtitles, record quality and panel visibility.</text>
    <text x="0" y="165" font-family="Share Tech Mono, Consolas, monospace" font-size="12" fill="#6F89A8">SPACE PLAY  P SCREENSHOT  F FULLSCREEN  ESC EXIT</text>
    <text x="0" y="189" font-family="Share Tech Mono, Consolas, monospace" font-size="12" fill="#6F89A8">LEFT/RIGHT SEEK  I MEDIA INFO  S STATS  H HUD</text>
  </g>
</svg>
